<?xml version="1.0" encoding="UTF-8" standalone="no"?>
<!-- Created with Inkscape (http://www.inkscape.org/) -->

<svg
   xmlns:dc="http://purl.org/dc/elements/1.1/"
   xmlns:cc="http://creativecommons.org/ns#"
   xmlns:rdf="http://www.w3.org/1999/02/22-rdf-syntax-ns#"
   xmlns:svg="http://www.w3.org/2000/svg"
   xmlns="http://www.w3.org/2000/svg"
   xmlns:sodipodi="http://sodipodi.sourceforge.net/DTD/sodipodi-0.dtd"
   xmlns:inkscape="http://www.inkscape.org/namespaces/inkscape"
   width="744.09448819"
   height="1052.3622047"
   id="svg4192"
   version="1.1"
   inkscape:version="0.48.4 r9939"
   sodipodi:docname="critical_questions_workout.svg">
  <defs
     id="defs4194" />
  <sodipodi:namedview
     id="base"
     pagecolor="#ffffff"
     bordercolor="#666666"
     borderopacity="1.0"
     inkscape:pageopacity="0.0"
     inkscape:pageshadow="2"
     inkscape:zoom="0.49497475"
     inkscape:cx="412.69207"
     inkscape:cy="652.02094"
     inkscape:document-units="px"
     inkscape:current-layer="layer1"
     showgrid="false"
     inkscape:window-width="1301"
     inkscape:window-height="744"
     inkscape:window-x="65"
     inkscape:window-y="24"
     inkscape:window-maximized="1" />
  <metadata
     id="metadata4197">
    <rdf:RDF>
      <cc:Work
         rdf:about="">
        <dc:format>image/svg+xml</dc:format>
        <dc:type
           rdf:resource="http://purl.org/dc/dcmitype/StillImage" />
        <dc:title></dc:title>
      </cc:Work>
    </rdf:RDF>
  </metadata>
  <g
     inkscape:label="Layer 1"
     inkscape:groupmode="layer"
     id="layer1">
    <rect
       style="fill:#ffffff;fill-opacity:1;stroke:#ffffff;stroke-width:3.00813031;stroke-linecap:round;stroke-miterlimit:4;stroke-opacity:1;stroke-dasharray:none;stroke-dashoffset:0"
       id="rect4861"
       width="745.48444"
       height="745.48444"
       x="0.004065237"
       y="112.92439"
       inkscape:export-filename="/home/krother/Desktop/Speechproject/critical_question_workout.png"
       inkscape:export-xdpi="150.07199"
       inkscape:export-ydpi="150.07199" />
    <path
       sodipodi:type="star"
       style="fill:#87cdde;fill-opacity:0.50196078;stroke:none"
       id="path4622"
       sodipodi:sides="6"
       sodipodi:cx="80"
       sodipodi:cy="189.50504"
       sodipodi:r1="335.46799"
       sodipodi:r2="132.89935"
       sodipodi:arg1="1.0471976"
       sodipodi:arg2="1.5707964"
       inkscape:flatsided="false"
       inkscape:rounded="0"
       inkscape:randomized="2.7755576e-17"
       d="M 247.73398,480.02884 79.99999,322.40439 -87.734008,480.02883 -35.094221,255.9547 -255.46799,189.50502 -35.094211,123.05535 -87.733979,-101.01877 80.00001,56.605682 l 167.734,-157.624442 -52.63979,224.07413 220.37377,66.44968 -220.37378,66.44967 z"
       inkscape:transform-center-x="-8.2574809"
       inkscape:transform-center-y="-16.424485"
       transform="matrix(0.76204297,0,0,0.76204297,316.95353,311.48073)"
       inkscape:export-filename="/home/krother/Desktop/Speechproject/critical_question_workout.png"
       inkscape:export-xdpi="150.07199"
       inkscape:export-ydpi="150.07199" />
    <g
       id="g4613"
       transform="matrix(0.76204297,0,0,0.76204297,190.59894,-330.81263)"
       inkscape:export-filename="/home/krother/Desktop/Speechproject/critical_question_workout.png"
       inkscape:export-xdpi="150.07199"
       inkscape:export-ydpi="150.07199">
      <path
         sodipodi:type="arc"
         style="fill:#5bbabf;fill-opacity:1;stroke:#5b88bf;stroke-width:9.47860432;stroke-opacity:1"
         id="path4564"
         sodipodi:cx="38.57143"
         sodipodi:cy="495.21933"
         sodipodi:rx="48.57143"
         sodipodi:ry="48.57143"
         d="m 87.14286,495.21933 c 0,26.82526 -21.74617,48.57143 -48.57143,48.57143 C 11.74617,543.79076 -10,522.04459 -10,495.21933 c 0,-26.82526 21.74617,-48.57143 48.57143,-48.57143 26.82526,0 48.57143,21.74617 48.57143,48.57143 z"
         transform="matrix(1.6880122,0,0,1.6880122,347.08575,-90.15526)" />
      <g
         transform="matrix(0.84616996,0,0,0.84616996,235.78336,69.848698)"
         id="g4606">
        <path
           style="fill:#cccccc;fill-opacity:1;stroke:#000000;stroke-width:3.54538703000000011;stroke-miterlimit:4;stroke-opacity:1;stroke-dasharray:none;stroke-dashoffset:0"
           d="m 208.45332,793.18303 c -18.35389,0 -33.18827,18.02305 -33.18827,40.25452 0,3.56723 0.38143,7.01637 1.10049,10.30977 l 64.17556,0 c 0.71906,-3.2934 1.1584,-6.74254 1.1584,-10.30977 0,-22.23147 -14.89229,-40.25452 -33.24618,-40.25452 z"
           id="path3077"
           inkscape:connector-curvature="0"
           inkscape:export-filename="/home/krother/Desktop/Speechproject/spektrum.png"
           inkscape:export-xdpi="150.02544"
           inkscape:export-ydpi="150.02544" />
        <path
           inkscape:export-ydpi="150.02544"
           inkscape:export-xdpi="150.02544"
           inkscape:export-filename="/home/krother/Desktop/Speechproject/spektrum.png"
           transform="matrix(0.86973317,0,0,0.86973317,-124.69937,682.2583)"
           d="m 370.72597,101.05103 c 0,5.43945 -4.40954,9.84899 -9.84899,9.84899 -5.43944,0 -9.84898,-4.40954 -9.84898,-9.84899 0,-5.439443 4.40954,-9.848985 9.84898,-9.848985 5.43945,0 9.84899,4.409542 9.84899,9.848985 z"
           sodipodi:ry="9.8489876"
           sodipodi:rx="9.8489876"
           sodipodi:cy="101.05103"
           sodipodi:cx="360.87698"
           id="path3169"
           style="fill:#cccccc;fill-opacity:1;stroke:#000000;stroke-width:4.07640791000000036;stroke-miterlimit:4;stroke-opacity:1;stroke-dasharray:none;stroke-dashoffset:0"
           sodipodi:type="arc" />
        <path
           sodipodi:type="arc"
           style="fill:#cccccc;fill-opacity:1;stroke:#000000;stroke-width:4.07640791000000036;stroke-miterlimit:4;stroke-opacity:1;stroke-dasharray:none;stroke-dashoffset:0"
           id="path3171"
           sodipodi:cx="360.87698"
           sodipodi:cy="101.05103"
           sodipodi:rx="9.8489876"
           sodipodi:ry="9.8489876"
           d="m 370.72597,101.05103 c 0,5.43945 -4.40954,9.84899 -9.84899,9.84899 -5.43944,0 -9.84898,-4.40954 -9.84898,-9.84899 0,-5.439443 4.40954,-9.848985 9.84898,-9.848985 5.43945,0 9.84899,4.409542 9.84899,9.848985 z"
           transform="matrix(0.86973317,0,0,0.86973317,-86.552009,682.2583)"
           inkscape:export-filename="/home/krother/Desktop/Speechproject/spektrum.png"
           inkscape:export-xdpi="150.02544"
           inkscape:export-ydpi="150.02544" />
        <path
           sodipodi:type="arc"
           style="fill:#cccccc;fill-opacity:1;stroke:#000000;stroke-width:1.91286253999999989;stroke-miterlimit:4;stroke-opacity:1;stroke-dasharray:none;stroke-dashoffset:0"
           id="path3079"
           sodipodi:cx="360.87698"
           sodipodi:cy="101.05103"
           sodipodi:rx="9.8489876"
           sodipodi:ry="9.8489876"
           d="m 370.72597,101.05103 c 0,5.43945 -4.40954,9.84899 -9.84899,9.84899 -5.43944,0 -9.84898,-4.40954 -9.84898,-9.84899 0,-5.439443 4.40954,-9.848985 9.84898,-9.848985 5.43945,0 9.84899,4.409542 9.84899,9.848985 z"
           transform="matrix(1.8534458,0,0,1.8534458,-460.39093,584.8424)"
           inkscape:export-filename="/home/krother/Desktop/Speechproject/spektrum.png"
           inkscape:export-xdpi="150.02544"
           inkscape:export-ydpi="150.02544" />
        <path
           inkscape:connector-curvature="0"
           id="path3202"
           d="m 202.22194,779.10425 c 0.18711,3.45186 3.01556,6.20391 6.5141,6.20391 3.49855,0 6.327,-2.75205 6.5141,-6.20391"
           style="fill:#b3b3b3;fill-opacity:1;stroke:#000000;stroke-width:3.54538703;stroke-miterlimit:4;stroke-opacity:1;stroke-dasharray:none;stroke-dashoffset:0"
           sodipodi:nodetypes="csc"
           inkscape:export-filename="/home/krother/Desktop/Speechproject/spektrum.png"
           inkscape:export-xdpi="150.02544"
           inkscape:export-ydpi="150.02544" />
      </g>
    </g>
    <g
       id="g4501"
       transform="matrix(0.76204297,0,0,0.76204297,124.84093,-110.65565)"
       inkscape:export-filename="/home/krother/Desktop/Speechproject/critical_question_workout.png"
       inkscape:export-xdpi="150.07199"
       inkscape:export-ydpi="150.07199">
      <path
         transform="matrix(1.6880122,0,0,1.6880122,100.60853,-379.05889)"
         d="m 87.14286,495.21933 c 0,26.82526 -21.74617,48.57143 -48.57143,48.57143 C 11.74617,543.79076 -10,522.04459 -10,495.21933 c 0,-26.82526 21.74617,-48.57143 48.57143,-48.57143 26.82526,0 48.57143,21.74617 48.57143,48.57143 z"
         sodipodi:ry="48.57143"
         sodipodi:rx="48.57143"
         sodipodi:cy="495.21933"
         sodipodi:cx="38.57143"
         id="path4476"
         style="fill:#5bbabf;fill-opacity:1;stroke:#5b88bf;stroke-width:9.47860432;stroke-opacity:1"
         sodipodi:type="arc" />
      <g
         id="g4081"
         transform="matrix(0.75503533,0,0,0.75503533,-212.96342,30.786612)"
         inkscape:export-filename="/home/krother/Desktop/Academis/pictures/icons/time_management.png"
         inkscape:export-xdpi="150.2869"
         inkscape:export-ydpi="150.2869">
        <rect
           style="fill:none;stroke:#000000;stroke-width:3.97332406;stroke-linecap:round;stroke-miterlimit:4;stroke-opacity:1;stroke-dasharray:none;stroke-dashoffset:0"
           id="rect4083"
           width="67.680222"
           height="107.3287"
           x="467.70065"
           y="510.66788"
           inkscape:export-filename="/home/krother/Desktop/Academis/pictures/icons/time_management.png"
           inkscape:export-xdpi="150.2869"
           inkscape:export-ydpi="150.2869" />
        <path
           style="fill:#cccccc;stroke:none"
           d="m 470.76362,529.258 61.52609,0 c -7.9719,24.88883 -18.51563,33.20373 -30.54127,32.68494 -12.17703,0.49864 -22.98942,-7.41269 -30.98482,-32.68494 z"
           id="path4093"
           inkscape:connector-curvature="0"
           sodipodi:nodetypes="cccc"
           inkscape:export-filename="/home/krother/Desktop/Academis/pictures/icons/time_management.png"
           inkscape:export-xdpi="150.2869"
           inkscape:export-ydpi="150.2869" />
        <path
           style="fill:none;stroke:#000000;stroke-width:2.64888263;stroke-linecap:butt;stroke-linejoin:miter;stroke-opacity:1"
           d="m 535.38086,510.66788 c 0,0 -3.02117,52.91431 -34.09265,52.78047 -31.07149,-0.13383 -33.58756,-52.78047 -33.58756,-52.78047"
           id="path4085"
           inkscape:connector-curvature="0"
           sodipodi:nodetypes="czc"
           inkscape:export-filename="/home/krother/Desktop/Academis/pictures/icons/time_management.png"
           inkscape:export-xdpi="150.2869"
           inkscape:export-ydpi="150.2869" />
        <path
           sodipodi:nodetypes="czc"
           inkscape:connector-curvature="0"
           id="path4087"
           d="m 535.38086,617.99658 c 0,0 -3.02117,-52.91431 -34.09265,-52.78047 -31.07149,0.13383 -33.58756,52.78047 -33.58756,52.78047"
           style="fill:none;stroke:#000000;stroke-width:2.64888263;stroke-linecap:butt;stroke-linejoin:miter;stroke-opacity:1"
           inkscape:export-filename="/home/krother/Desktop/Academis/pictures/icons/time_management.png"
           inkscape:export-xdpi="150.2869"
           inkscape:export-ydpi="150.2869" />
        <path
           style="fill:#cccccc;stroke:#000000;stroke-width:2.64888263000000013;stroke-linecap:butt;stroke-linejoin:miter;stroke-opacity:1"
           d="m 485.9944,617.18361 15.54635,-20.17857 c 0,0 16.23937,20.71428 15.52508,20.53571 -0.71428,-0.17857 -31.07143,-0.35714 -31.07143,-0.35714 z"
           id="path4089"
           inkscape:connector-curvature="0"
           sodipodi:nodetypes="ccsc"
           inkscape:export-filename="/home/krother/Desktop/Academis/pictures/icons/time_management.png"
           inkscape:export-xdpi="150.2869"
           inkscape:export-ydpi="150.2869" />
        <path
           style="fill:#cccccc;stroke:#cccccc;stroke-width:2.64888263000000013;stroke-linecap:butt;stroke-linejoin:miter;stroke-opacity:1"
           d="m 501.54075,600.68492 0,-40.53729"
           id="path4091"
           inkscape:connector-curvature="0"
           sodipodi:nodetypes="cc"
           inkscape:export-filename="/home/krother/Desktop/Academis/pictures/icons/time_management.png"
           inkscape:export-xdpi="150.2869"
           inkscape:export-ydpi="150.2869" />
        <path
           sodipodi:nodetypes="cc"
           inkscape:connector-curvature="0"
           id="path4038"
           d="m 471.07655,528.44177 60.43574,0"
           style="fill:#808080;stroke:#000000;stroke-width:2.66452527;stroke-linecap:butt;stroke-linejoin:miter;stroke-opacity:1"
           inkscape:export-filename="/home/krother/Desktop/Academis/pictures/icons/time_management.png"
           inkscape:export-xdpi="150.2869"
           inkscape:export-ydpi="150.2869" />
      </g>
    </g>
    <g
       id="g4553"
       transform="matrix(0.76204297,0,0,0.76204297,102.69878,-56.477161)"
       inkscape:export-filename="/home/krother/Desktop/Speechproject/critical_question_workout.png"
       inkscape:export-xdpi="150.07199"
       inkscape:export-ydpi="150.07199">
      <g
         id="g4549">
        <g
           transform="translate(521.23871,216.17265)"
           inkscape:transform-center-y="103.03556"
           inkscape:transform-center-x="434.36559"
           id="g4512">
          <path
             sodipodi:type="arc"
             style="fill:#5bbabf;fill-opacity:1;stroke:#5b88bf;stroke-width:9.47860432;stroke-opacity:1"
             id="path4514"
             sodipodi:cx="38.57143"
             sodipodi:cy="495.21933"
             sodipodi:rx="48.57143"
             sodipodi:ry="48.57143"
             d="m 87.14286,495.21933 c 0,26.82526 -21.74617,48.57143 -48.57143,48.57143 C 11.74617,543.79076 -10,522.04459 -10,495.21933 c 0,-26.82526 21.74617,-48.57143 48.57143,-48.57143 26.82526,0 48.57143,21.74617 48.57143,48.57143 z"
             transform="matrix(1.6880122,0,0,1.6880122,100.60853,-379.05889)" />
        </g>
      </g>
      <g
         transform="translate(-30.061817,211.71036)"
         id="g4532">
        <path
           inkscape:export-ydpi="320.01001"
           inkscape:export-xdpi="320.01001"
           inkscape:export-filename="/home/krother/Desktop/Speechproject/icons/feedback.png"
           d="m 312.85714,480.21933 c 0,39.8434 -32.29946,72.14286 -72.14286,72.14286 -39.8434,0 -72.14286,-32.29946 -72.14286,-72.14286 0,-39.8434 32.29946,-72.14286 72.14286,-72.14286 39.8434,0 72.14286,32.29946 72.14286,72.14286 z"
           sodipodi:ry="72.14286"
           sodipodi:rx="72.14286"
           sodipodi:cy="480.21933"
           sodipodi:cx="240.71428"
           id="path4218"
           style="fill:#cccccc;fill-opacity:1;stroke:#000000;stroke-width:5.25015879;stroke-linecap:round;stroke-miterlimit:4;stroke-opacity:1;stroke-dasharray:none;stroke-dashoffset:0"
           sodipodi:type="arc"
           transform="matrix(0.57141127,0,0,0.57141127,579.47125,186.93693)" />
        <rect
           inkscape:export-ydpi="320.01001"
           inkscape:export-xdpi="320.01001"
           inkscape:export-filename="/home/krother/Desktop/Speechproject/icons/feedback.png"
           y="436.85062"
           x="711.71216"
           height="48.978111"
           width="10.611923"
           id="rect4220"
           style="fill:#000000;fill-opacity:1;stroke:#000000;stroke-width:1.71423388;stroke-linecap:round;stroke-miterlimit:4;stroke-opacity:1;stroke-dasharray:none;stroke-dashoffset:0" />
        <rect
           inkscape:export-ydpi="320.01001"
           inkscape:export-xdpi="320.01001"
           inkscape:export-filename="/home/krother/Desktop/Speechproject/icons/feedback.png"
           transform="matrix(0,1,-1,0,0,0)"
           style="fill:#000000;fill-opacity:1;stroke:#000000;stroke-width:1.71423388;stroke-linecap:round;stroke-miterlimit:4;stroke-opacity:1;stroke-dasharray:none;stroke-dashoffset:0"
           id="rect4222"
           width="10.611923"
           height="48.978111"
           x="456.03372"
           y="-741.5072" />
      </g>
    </g>
    <g
       id="g4397"
       transform="matrix(0.76204297,0,0,0.76204297,-112.14872,274.99527)"
       inkscape:export-filename="/home/krother/Desktop/Speechproject/critical_question_workout.png"
       inkscape:export-xdpi="150.07199"
       inkscape:export-ydpi="150.07199">
      <path
         transform="matrix(1.6880122,0,0,1.6880122,252.18759,-597.8649)"
         d="m 87.14286,495.21933 c 0,26.82526 -21.74617,48.57143 -48.57143,48.57143 C 11.74617,543.79076 -10,522.04459 -10,495.21933 c 0,-26.82526 21.74617,-48.57143 48.57143,-48.57143 26.82526,0 48.57143,21.74617 48.57143,48.57143 z"
         sodipodi:ry="48.57143"
         sodipodi:rx="48.57143"
         sodipodi:cy="495.21933"
         sodipodi:cx="38.57143"
         id="path4344"
         style="fill:#5bbabf;fill-opacity:1;stroke:#5b88bf;stroke-width:9.47860432;stroke-opacity:1"
         sodipodi:type="arc" />
      <path
         style="fill:#cccccc;stroke:#000000;stroke-width:3;stroke-linecap:butt;stroke-linejoin:miter;stroke-opacity:1"
         d="m 322.69413,201.54702 19.81999,11.4431 -28.13867,18.6254 19.64566,11.3424 -24.27766,21.6074 10.32009,5.9583 -25.81394,4.0721 -2.17045,-22.4504 9.86041,5.6929 15.76483,-14.0309 -22.74217,-13.1302 z"
         id="path4171"
         inkscape:connector-curvature="0"
         sodipodi:nodetypes="cccccccccccc"
         inkscape:export-filename="/home/krother/Desktop/Speechproject/icons/blitz.png"
         inkscape:export-xdpi="320.01001"
         inkscape:export-ydpi="320.01001" />
    </g>
    <g
       id="g4428"
       transform="matrix(0.76204297,0,0,0.76204297,126.71245,108.52784)"
       inkscape:export-filename="/home/krother/Desktop/Speechproject/critical_question_workout.png"
       inkscape:export-xdpi="150.07199"
       inkscape:export-ydpi="150.07199">
      <path
         transform="matrix(1.6880122,0,0,1.6880122,264.5371,-379.41603)"
         d="m 87.14286,495.21933 c 0,26.82526 -21.74617,48.57143 -48.57143,48.57143 C 11.74617,543.79076 -10,522.04459 -10,495.21933 c 0,-26.82526 21.74617,-48.57143 48.57143,-48.57143 26.82526,0 48.57143,21.74617 48.57143,48.57143 z"
         sodipodi:ry="48.57143"
         sodipodi:rx="48.57143"
         sodipodi:cy="495.21933"
         sodipodi:cx="38.57143"
         id="path4414"
         style="fill:#5bbabf;fill-opacity:1;stroke:#5b88bf;stroke-width:9.47860432;stroke-opacity:1"
         sodipodi:type="arc" />
      <g
         inkscape:export-ydpi="320.01001"
         inkscape:export-xdpi="320.01001"
         inkscape:export-filename="/home/krother/Desktop/Speechproject/icons/rede.png"
         id="g4126"
         transform="matrix(-1.1028923,0,0,1.1028923,913.08878,-199.71615)">
        <path
           inkscape:export-ydpi="300"
           inkscape:export-xdpi="300"
           inkscape:export-filename="C:\Documents and Settings\Kristian\Pulpit\lehre\Presenting\pictures\presenters.png"
           sodipodi:nodetypes="ssssscccccccccccccccc"
           style="fill:#b3b3b3;fill-opacity:1;stroke:#000000;stroke-width:2.72012043"
           d="m 526.73744,556.71442 c 5.74843,0 10.41017,4.66176 10.41017,10.41017 0,5.74843 -4.66174,10.41019 -10.41017,10.41019 -5.74842,0 -10.40339,-4.66176 -10.40339,-10.41019 0,-5.74841 4.65497,-10.41017 10.40339,-10.41017 z m -34.32224,21.47748 14.2407,11.29875 14.68668,-10.95959 10.93205,0 20.97166,22.99542 -0.28535,13.03861 -17.83388,-15.3666 6.45976,34.10123 -11.51332,0 -2.89622,-20.77848 -0.72883,20.79239 -11.58249,-0.0909 3.83464,-35.82252 -11.44026,5.29951 -14.66336,-10.8912 z"
           id="path4128"
           inkscape:connector-curvature="0" />
        <path
           inkscape:export-ydpi="300"
           inkscape:export-xdpi="300"
           inkscape:export-filename="C:\Documents and Settings\Kristian\Pulpit\lehre\Presenting\pictures\presenters.png"
           inkscape:connector-curvature="0"
           id="path4130"
           d="m 512.89803,591.83437 9.65159,0 19.20353,17.01912 0,24.46014 -28.85512,0 z"
           style="fill:#cccccc;fill-opacity:1;stroke:#000000;stroke-width:2.72012043"
           sodipodi:nodetypes="cccccc" />
        <rect
           inkscape:export-ydpi="300"
           inkscape:export-xdpi="300"
           inkscape:export-filename="C:\Documents and Settings\Kristian\Pulpit\lehre\Presenting\pictures\presenters.png"
           transform="matrix(0.6589305,0.75220383,0.75220383,-0.6589305,0,0)"
           y="7.6094184"
           x="820.10742"
           height="16.452473"
           width="10.796935"
           id="rect4132"
           style="fill:#cccccc;fill-opacity:1;stroke:#000000;stroke-width:2.72012043" />
      </g>
    </g>
    <g
       id="g4424"
       transform="translate(-68.571429,700)">
      <path
         sodipodi:type="arc"
         style="fill:#5bbabf;fill-opacity:1;stroke:#5b88bf;stroke-width:9.47860432;stroke-opacity:1"
         id="path4409"
         sodipodi:cx="38.57143"
         sodipodi:cy="495.21933"
         sodipodi:rx="48.57143"
         sodipodi:ry="48.57143"
         d="m 87.14286,495.21933 c 0,26.82526 -21.74617,48.57143 -48.57143,48.57143 C 11.74617,543.79076 -10,522.04459 -10,495.21933 c 0,-26.82526 21.74617,-48.57143 48.57143,-48.57143 26.82526,0 48.57143,21.74617 48.57143,48.57143 z"
         transform="matrix(1.6880122,0,0,1.6880122,105.25139,-379.41603)" />
      <path
         style="fill:#b3b3b3;fill-opacity:1;stroke:#000000;stroke-width:3;stroke-linecap:round;stroke-miterlimit:4;stroke-opacity:1;stroke-dashoffset:0"
         d="m 151.95873,426.57615 c -10.23211,0 -18.51877,4.8601 -18.64271,18.6426 -0.12394,13.78257 37.05385,41.24558 37.05385,41.24558 0,0 36.79904,-28.27757 37.03066,-41.24558 0.23136,-12.9679 -8.24845,-18.6426 -18.4806,-18.6426 -10.2321,0 -18.48061,8.4106 -18.48061,18.6426 0,-10.232 -8.24842,-18.6426 -18.48059,-18.6426 z"
         id="path4122"
         inkscape:connector-curvature="0"
         sodipodi:nodetypes="szczscs"
         inkscape:export-filename="/home/krother/Desktop/Speechproject/icons/lieblingsthema.png"
         inkscape:export-xdpi="320.01001"
         inkscape:export-ydpi="320.01001" />
    </g>
    <g
       id="g4451"
       transform="translate(-158.93125,707.87395)">
      <path
         sodipodi:type="arc"
         style="fill:#5bbabf;fill-opacity:1;stroke:#5b88bf;stroke-width:9.47860432;stroke-opacity:1"
         id="path4416"
         sodipodi:cx="38.57143"
         sodipodi:cy="495.21933"
         sodipodi:rx="48.57143"
         sodipodi:ry="48.57143"
         d="m 87.14286,495.21933 c 0,26.82526 -21.74617,48.57143 -48.57143,48.57143 C 11.74617,543.79076 -10,522.04459 -10,495.21933 c 0,-26.82526 21.74617,-48.57143 48.57143,-48.57143 26.82526,0 48.57143,21.74617 48.57143,48.57143 z"
         transform="matrix(1.6880122,0,0,1.6880122,442.39424,-379.41603)" />
      <g
         inkscape:export-ydpi="320.01001"
         inkscape:export-xdpi="320.01001"
         inkscape:export-filename="/home/krother/Desktop/Speechproject/icons/moderation.png"
         transform="matrix(0.7371587,0,0,0.7371587,1232.204,480.96196)"
         style="fill:#b3b3b3;stroke:#b3b3b3"
         id="g4134">
        <path
           inkscape:connector-curvature="0"
           id="path4138"
           transform="matrix(1.35656,0,0,1.35656,-1679.2696,-661.07437)"
           d="m 483.28125,425.90625 c -7.22041,0 -13.0625,5.84206 -13.0625,13.0625 0,7.22044 5.84209,13.0625 13.0625,13.0625 7.22041,0 13.09375,-5.84206 13.09375,-13.0625 0,-7.22044 -5.87334,-13.0625 -13.09375,-13.0625 z m 59.78125,0 c -7.22041,0 -13.0625,5.84206 -13.0625,13.0625 0,7.22044 5.84209,13.0625 13.0625,13.0625 7.22041,0 13.09375,-5.84206 13.09375,-13.0625 0,-7.22044 -5.87334,-13.0625 -13.09375,-13.0625 z m -59.78125,28.5 c -7.22041,0 -13.0625,5.87331 -13.0625,13.09375 l 0,32.34375 26.15625,0 0,-26.65625 12.4375,5.21875 c 0.77367,1.6488 2.43323,2.8125 4.375,2.8125 1.87779,0 3.47629,-1.09476 4.28125,-2.65625 l 12.53125,-5.25 0,26.53125 26.15625,0 0,-32.34375 c 0,-7.22044 -5.87334,-13.09375 -13.09375,-13.09375 -5.06311,0 -9.45647,2.87842 -11.625,7.09375 l -15.25,11.125 c -0.8326,-0.674 -1.84534,-1.125 -3,-1.125 -1.09149,0 -2.09602,0.3912 -2.90625,1 l -15.5625,-11.34375 c -2.23579,-4.02655 -6.51416,-6.75 -11.4375,-6.75 z"
           style="fill:#b3b3b3;fill-opacity:1;stroke:#000000;stroke-width:3;stroke-miterlimit:4;stroke-dashoffset:0" />
      </g>
    </g>
    <g
       id="g4420"
       transform="translate(-151.42857,697.14286)">
      <path
         transform="matrix(1.6880122,0,0,1.6880122,-83.320046,-379.41603)"
         d="m 87.14286,495.21933 c 0,26.82526 -21.74617,48.57143 -48.57143,48.57143 C 11.74617,543.79076 -10,522.04459 -10,495.21933 c 0,-26.82526 21.74617,-48.57143 48.57143,-48.57143 26.82526,0 48.57143,21.74617 48.57143,48.57143 z"
         sodipodi:ry="48.57143"
         sodipodi:rx="48.57143"
         sodipodi:cy="495.21933"
         sodipodi:cx="38.57143"
         id="path4418"
         style="fill:#5bbabf;fill-opacity:1;stroke:#5b88bf;stroke-width:9.47860432;stroke-opacity:1"
         sodipodi:type="arc" />
      <path
         sodipodi:type="star"
         style="fill:#b3b3b3;fill-opacity:1;stroke:#000000;stroke-width:3.62001014;stroke-miterlimit:4;stroke-opacity:1;stroke-dasharray:none;stroke-dashoffset:0"
         id="path4214"
         sodipodi:sides="5"
         sodipodi:cx="318.57144"
         sodipodi:cy="92.362183"
         sodipodi:r1="51.110126"
         sodipodi:r2="20.247843"
         sodipodi:arg1="0.52359878"
         sodipodi:arg2="1.1512807"
         inkscape:flatsided="false"
         inkscape:rounded="0"
         inkscape:randomized="2.7755576e-17"
         d="m 362.83411,117.91725 -36.01535,-7.06299 -18.87371,31.50117 -4.41206,-36.43522 -35.79169,-8.215565 33.28855,-15.455219 -3.24677,-36.578667 24.98552,26.883369 33.78507,-14.391295 -17.84666,32.070055 z"
         inkscape:transform-center-y="-13.848874"
         transform="matrix(0.75789612,0.335234,-0.335234,0.75789612,-228.66033,283.73775)"
         inkscape:transform-center-x="-7.293855"
         inkscape:export-filename="/home/krother/Desktop/Speechproject/icons/success.png"
         inkscape:export-xdpi="320.01001"
         inkscape:export-ydpi="320.01001" />
    </g>
    <g
       transform="matrix(0.76204297,0,0,0.76204297,403.82522,197.02242)"
       id="g3114"
       inkscape:export-filename="/home/krother/Desktop/Speechproject/critical_question_workout.png"
       inkscape:export-xdpi="150.07199"
       inkscape:export-ydpi="150.07199">
      <path
         sodipodi:type="arc"
         style="fill:#5bbabf;fill-opacity:1;stroke:#5b88bf;stroke-width:9.47860432;stroke-opacity:1"
         id="path3116"
         sodipodi:cx="38.57143"
         sodipodi:cy="495.21933"
         sodipodi:rx="48.57143"
         sodipodi:ry="48.57143"
         d="m 87.14286,495.21933 c 0,26.82526 -21.74617,48.57143 -48.57143,48.57143 C 11.74617,543.79076 -10,522.04459 -10,495.21933 c 0,-26.82526 21.74617,-48.57143 48.57143,-48.57143 26.82526,0 48.57143,21.74617 48.57143,48.57143 z"
         transform="matrix(1.6880122,0,0,1.6880122,67.277021,-207.66562)" />
      <g
         transform="matrix(0.55836504,0,0,0.55836504,-342.15198,526.55725)"
         id="g3118">
        <path
           sodipodi:type="arc"
           style="fill:#b3b3b3;stroke:#000000;stroke-width:7.29138613"
           id="path3120"
           sodipodi:cx="-297.73959"
           sodipodi:cy="288.92188"
           sodipodi:rx="74.697914"
           sodipodi:ry="24.209249"
           d="m -223.04168,288.92187 c 0,13.3704 -33.44339,24.20925 -74.69791,24.20925 -41.25452,0 -74.69792,-10.83885 -74.69792,-24.20925 0,-13.37039 33.4434,-24.20924 74.69792,-24.20924 41.25452,0 74.69791,10.83885 74.69791,24.20924 z"
           transform="matrix(0.46885364,-0.81708319,0.97431304,0.3608963,715.4877,-185.13999)" />
        <path
           style="fill:none;stroke:#000000;stroke-width:5.37282944;stroke-linecap:butt;stroke-linejoin:round;stroke-opacity:1;marker-start:none"
           d="m -334.03646,450.41667 93.18921,-157.56305"
           id="path3122"
           inkscape:connector-curvature="0"
           transform="translate(1133.2614,-191.47917)"
           sodipodi:nodetypes="cc" />
        <path
           style="fill:none;stroke:#000000;stroke-width:3.58188605;stroke-linecap:butt;stroke-linejoin:miter;stroke-opacity:1"
           d="m -248.81771,307.85938 13.67708,0"
           id="path3124"
           inkscape:connector-curvature="0"
           transform="translate(1133.2614,-191.47917)" />
        <path
           style="fill:none;stroke:#000000;stroke-width:3.58188605;stroke-linecap:butt;stroke-linejoin:miter;stroke-opacity:1"
           d="m -260.91667,327.32292 22.61979,0"
           id="path3126"
           inkscape:connector-curvature="0"
           transform="translate(1133.2614,-191.47917)" />
        <path
           style="fill:none;stroke:#000000;stroke-width:3.58188605;stroke-linecap:butt;stroke-linejoin:miter;stroke-opacity:1"
           d="m 860.77181,155.30731 27.98042,0"
           id="path3128"
           inkscape:connector-curvature="0" />
        <path
           style="fill:none;stroke:#000000;stroke-width:3.58188605;stroke-linecap:butt;stroke-linejoin:miter;stroke-opacity:1"
           d="m 849.1989,174.77083 29.43101,0"
           id="path3130"
           inkscape:connector-curvature="0" />
        <path
           style="fill:none;stroke:#000000;stroke-width:3.58188605;stroke-linecap:butt;stroke-linejoin:miter;stroke-opacity:1"
           d="m 837.09994,194.23438 27.3247,0"
           id="path3132"
           inkscape:connector-curvature="0" />
        <path
           style="fill:none;stroke:#000000;stroke-width:3.58188605;stroke-linecap:butt;stroke-linejoin:miter;stroke-opacity:1"
           d="m 825.52702,213.69792 21.64459,0"
           id="path3134"
           inkscape:connector-curvature="0" />
        <path
           style="fill:none;stroke:#000000;stroke-width:3.58188605;stroke-linecap:butt;stroke-linejoin:miter;stroke-opacity:1"
           d="m -248.81771,307.85938 -11.04688,-9.33724"
           id="path3136"
           inkscape:connector-curvature="0"
           transform="translate(1133.2614,-191.47917)" />
        <path
           style="fill:none;stroke:#000000;stroke-width:3.58188605;stroke-linecap:butt;stroke-linejoin:miter;stroke-opacity:1"
           d="m -260.91667,327.32292 -14.72917,-14.72917"
           id="path3138"
           inkscape:connector-curvature="0"
           transform="translate(1133.2614,-191.47917)" />
        <path
           style="fill:none;stroke:#000000;stroke-width:3.58188605;stroke-linecap:butt;stroke-linejoin:miter;stroke-opacity:1"
           d="m -272.48959,346.78648 -16.83334,-16.83334"
           id="path3140"
           inkscape:connector-curvature="0"
           transform="translate(1133.2614,-191.47917)" />
        <path
           style="fill:none;stroke:#000000;stroke-width:3.58188605;stroke-linecap:butt;stroke-linejoin:miter;stroke-opacity:1"
           d="m -284.0625,366.25 -16.96484,-16.96484"
           id="path3142"
           inkscape:connector-curvature="0"
           transform="translate(1133.2614,-191.47917)" />
        <path
           style="fill:none;stroke:#000000;stroke-width:3.58188605;stroke-linecap:butt;stroke-linejoin:miter;stroke-opacity:1"
           d="m -296.16146,385.71355 -15.25521,-15.25521"
           id="path3144"
           inkscape:connector-curvature="0"
           transform="translate(1133.2614,-191.47917)" />
        <path
           style="fill:none;stroke:#000000;stroke-width:3.58188605;stroke-linecap:butt;stroke-linejoin:miter;stroke-opacity:1"
           d="m -307.73438,405.17709 -9.99479,-9.99479"
           id="path3146"
           inkscape:connector-curvature="0"
           transform="translate(1133.2614,-191.47917)" />
        <path
           style="fill:#000000;stroke:none"
           d="m 801.58471,260.23532 -4.65095,6.92798 0,-9.62446"
           id="path3148"
           inkscape:connector-curvature="0"
           sodipodi:nodetypes="ccc" />
      </g>
    </g>
    <g
       id="g4401"
       transform="matrix(0.76204297,0,0,0.76204297,-158.85219,479.52514)"
       inkscape:export-filename="/home/krother/Desktop/Speechproject/critical_question_workout.png"
       inkscape:export-xdpi="150.07199"
       inkscape:export-ydpi="150.07199">
      <path
         sodipodi:type="arc"
         style="fill:#5bbabf;fill-opacity:1;stroke:#5b88bf;stroke-width:9.47860432;stroke-opacity:1"
         id="path4395"
         sodipodi:cx="38.57143"
         sodipodi:cy="495.21933"
         sodipodi:rx="48.57143"
         sodipodi:ry="48.57143"
         d="m 87.14286,495.21933 c 0,26.82526 -21.74617,48.57143 -48.57143,48.57143 C 11.74617,543.79076 -10,522.04459 -10,495.21933 c 0,-26.82526 21.74617,-48.57143 48.57143,-48.57143 26.82526,0 48.57143,21.74617 48.57143,48.57143 z"
         transform="matrix(1.6880122,0,0,1.6880122,472.88821,-578.38318)" />
      <g
         id="g4116"
         transform="matrix(-0.53534249,0,0,0.53534249,552.88911,115.69993)">
        <rect
           inkscape:export-ydpi="320.01001"
           inkscape:export-xdpi="320.01001"
           inkscape:export-filename="/home/krother/Desktop/Speechproject/icons/workshop.png"
           style="fill:#b3b3b3;fill-opacity:1;stroke:#000000;stroke-width:5.60388899"
           id="rect4118"
           width="100.74921"
           height="119.50935"
           x="-121.27361"
           y="187.74718"
           transform="scale(-1,1)" />
        <path
           inkscape:export-ydpi="320.01001"
           inkscape:export-xdpi="320.01001"
           inkscape:export-filename="/home/krother/Desktop/Speechproject/icons/workshop.png"
           sodipodi:nodetypes="ssssscccccccccccccccc"
           style="fill:#cccccc;fill-opacity:1;stroke:#000000;stroke-width:5.60388899"
           d="m -13.555663,191.70799 c -11.294201,0 -20.453321,9.15916 -20.453321,20.45333 0,11.29417 9.15912,20.45333 20.453321,20.45333 11.2941698,0 20.4399898,-9.15916 20.4399898,-20.45333 0,-11.29417 -9.14582,-20.45333 -20.4399898,-20.45333 z m 67.434373,42.19773 -27.979303,22.19914 -28.8555602,-21.53277 -21.4786708,0 -41.203929,45.18008 0.56064,25.61753 35.038999,-30.19142 -12.691779,67.00016 22.620719,0 5.690331,-40.82437 1.43196,40.85168 22.7566298,-0.17857 -7.53408,-70.38205 22.4771602,10.41216 28.809733,-21.39842 z"
           id="path4124"
           inkscape:connector-curvature="0" />
      </g>
    </g>
    <flowRoot
       xml:space="preserve"
       id="flowRoot4688"
       style="font-size:10px;font-style:normal;font-weight:normal;line-height:125%;letter-spacing:0px;word-spacing:0px;fill:#000000;fill-opacity:1;stroke:none;font-family:Sans"
       transform="matrix(0.91424813,0,0,0.91424813,39.063914,117.92134)"
       inkscape:export-filename="/home/krother/Desktop/Speechproject/critical_question_workout.png"
       inkscape:export-xdpi="150.07199"
       inkscape:export-ydpi="150.07199"><flowRegion
         id="flowRegion4690"><rect
           id="rect4692"
           width="197.14285"
           height="91.428574"
           x="137.14285"
           y="206.6479" /></flowRegion><flowPara
         id="flowPara4694"
         style="font-size:20px;font-weight:bold">1. Time a debate</flowPara><flowPara
         style="font-size:20px;font-weight:bold"
         id="flowPara4696">or Q &amp; A session</flowPara></flowRoot>    <flowRoot
       transform="matrix(0.91424813,0,0,0.91424813,305.52263,117.92134)"
       style="font-size:10px;font-style:normal;font-weight:normal;line-height:125%;letter-spacing:0px;word-spacing:0px;fill:#000000;fill-opacity:1;stroke:none;font-family:Sans"
       id="flowRoot4756"
       xml:space="preserve"
       inkscape:export-filename="/home/krother/Desktop/Speechproject/critical_question_workout.png"
       inkscape:export-xdpi="150.07199"
       inkscape:export-ydpi="150.07199"><flowRegion
         id="flowRegion4758"><rect
           y="206.6479"
           x="137.14285"
           height="84.285713"
           width="292.85712"
           id="rect4760" /></flowRegion><flowPara
         id="flowPara4764"
         style="font-size:20px;font-weight:bold">2. Ask critical</flowPara><flowPara
         style="font-size:20px;font-weight:bold"
         id="flowPara4770">questions </flowPara><flowPara
         style="font-size:20px;font-weight:bold"
         id="flowPara4768">after a speech</flowPara></flowRoot>    <flowRoot
       xml:space="preserve"
       id="flowRoot4782"
       style="font-size:10px;font-style:normal;font-weight:normal;line-height:125%;letter-spacing:0px;word-spacing:0px;fill:#000000;fill-opacity:1;stroke:none;font-family:Sans"
       transform="matrix(0.91424813,0,0,0.91424813,-85.112288,339.95303)"
       inkscape:export-filename="/home/krother/Desktop/Speechproject/critical_question_workout.png"
       inkscape:export-xdpi="150.07199"
       inkscape:export-ydpi="150.07199"><flowRegion
         id="flowRegion4784"><rect
           id="rect4786"
           width="292.85712"
           height="84.285713"
           x="137.14285"
           y="206.6479" /></flowRegion><flowPara
         style="font-size:20px;font-weight:bold"
         id="flowPara4788">3. Answer critical</flowPara><flowPara
         id="flowPara4790"
         style="font-size:20px;font-weight:bold">questions </flowPara><flowPara
         id="flowPara4792"
         style="font-size:20px;font-weight:bold">after a speech</flowPara></flowRoot>    <flowRoot
       transform="matrix(0.91424813,0,0,0.91424813,163.89184,339.95303)"
       style="font-size:10px;font-style:normal;font-weight:normal;line-height:125%;letter-spacing:0px;word-spacing:0px;fill:#000000;fill-opacity:1;stroke:none;font-family:Sans"
       id="flowRoot4794"
       xml:space="preserve"
       inkscape:export-filename="/home/krother/Desktop/Speechproject/critical_question_workout.png"
       inkscape:export-xdpi="150.07199"
       inkscape:export-ydpi="150.07199"><flowRegion
         id="flowRegion4796"><rect
           y="206.6479"
           x="137.14285"
           height="84.285713"
           width="292.85712"
           id="rect4798" /></flowRegion><flowPara
         id="flowPara4800"
         style="font-size:20px;font-weight:bold">4. Chair a debate</flowPara><flowPara
         style="font-size:20px;font-weight:bold"
         id="flowPara4804">or Q &amp; A Session</flowPara></flowRoot>    <flowRoot
       xml:space="preserve"
       id="flowRoot4812"
       style="font-size:10px;font-style:normal;font-weight:normal;line-height:125%;letter-spacing:0px;word-spacing:0px;fill:#000000;fill-opacity:1;stroke:none;font-family:Sans"
       transform="matrix(0.91424813,0,0,0.91424813,430.22561,339.95303)"
       inkscape:export-filename="/home/krother/Desktop/Speechproject/critical_question_workout.png"
       inkscape:export-xdpi="150.07199"
       inkscape:export-ydpi="150.07199"><flowRegion
         id="flowRegion4814"><rect
           id="rect4816"
           width="292.85712"
           height="84.285713"
           x="137.14285"
           y="206.6479" /></flowRegion><flowPara
         style="font-size:20px;font-weight:bold"
         id="flowPara4818">5. Evaluate a</flowPara><flowPara
         id="flowPara4820"
         style="font-size:20px;font-weight:bold">Q &amp; A session</flowPara></flowRoot>    <flowRoot
       transform="matrix(0.91424813,0,0,0.91424813,41.974505,561.98472)"
       style="font-size:10px;font-style:normal;font-weight:normal;line-height:125%;letter-spacing:0px;word-spacing:0px;fill:#000000;fill-opacity:1;stroke:none;font-family:Sans"
       id="flowRoot4822"
       xml:space="preserve"
       inkscape:export-filename="/home/krother/Desktop/Speechproject/critical_question_workout.png"
       inkscape:export-xdpi="150.07199"
       inkscape:export-ydpi="150.07199"><flowRegion
         id="flowRegion4824"><rect
           y="206.6479"
           x="137.14285"
           height="84.285713"
           width="292.85712"
           id="rect4826" /></flowRegion><flowPara
         id="flowPara4828"
         style="font-size:20px;font-weight:bold">6. Inform about</flowPara><flowPara
         style="font-size:20px;font-weight:bold"
         id="flowPara4857">one specific</flowPara><flowPara
         style="font-size:20px;font-weight:bold"
         id="flowPara4830">Q &amp; A technique</flowPara></flowRoot>    <flowRoot
       xml:space="preserve"
       id="flowRoot4836"
       style="font-size:10px;font-style:normal;font-weight:normal;line-height:125%;letter-spacing:0px;word-spacing:0px;fill:#000000;fill-opacity:1;stroke:none;font-family:Sans"
       transform="matrix(0.91424813,0,0,0.91424813,279.08622,561.98472)"
       inkscape:export-filename="/home/krother/Desktop/Speechproject/critical_question_workout.png"
       inkscape:export-xdpi="150.07199"
       inkscape:export-ydpi="150.07199"><flowRegion
         id="flowRegion4838"><rect
           id="rect4840"
           width="292.85712"
           height="84.285713"
           x="137.14285"
           y="206.6479" /></flowRegion><flowPara
         id="flowPara4844"
         style="font-size:20px;font-weight:bold">7. Publish a speech project from this</flowPara><flowPara
         style="font-size:20px;font-weight:bold"
         id="flowPara4848">workout</flowPara></flowRoot>    <path
       style="fill:#00ff00;fill-opacity:1;stroke:#000000;stroke-width:3;stroke-linecap:butt;stroke-linejoin:miter;stroke-opacity:1"
       d="m 288.2611,705.90571 14.65401,38.92474 38.48892,-73.77224 -37.57312,48.70828 z"
       id="path3748"
       inkscape:connector-curvature="0"
       sodipodi:nodetypes="ccccc"
       inkscape:export-filename="/home/krother/Desktop/Speechproject/critical_question_workout.png"
       inkscape:export-xdpi="150.07199"
       inkscape:export-ydpi="150.07199" />
    <path
       sodipodi:nodetypes="ccccc"
       inkscape:connector-curvature="0"
       id="path4859"
       d="m 540.79924,263.45889 14.65401,38.92474 38.48892,-73.77224 -37.57312,48.70828 z"
       style="fill:#00ff00;fill-opacity:1;stroke:#000000;stroke-width:3;stroke-linecap:butt;stroke-linejoin:miter;stroke-opacity:1"
       inkscape:export-filename="/home/krother/Desktop/Speechproject/critical_question_workout.png"
       inkscape:export-xdpi="150.07199"
       inkscape:export-ydpi="150.07199" />
  </g>
</svg>
