<?xml version="1.0" encoding="UTF-8" standalone="no"?>
<!-- Created with Inkscape (http://www.inkscape.org/) -->

<svg
   xmlns:dc="http://purl.org/dc/elements/1.1/"
   xmlns:cc="http://creativecommons.org/ns#"
   xmlns:rdf="http://www.w3.org/1999/02/22-rdf-syntax-ns#"
   xmlns:svg="http://www.w3.org/2000/svg"
   xmlns="http://www.w3.org/2000/svg"
   xmlns:sodipodi="http://sodipodi.sourceforge.net/DTD/sodipodi-0.dtd"
   xmlns:inkscape="http://www.inkscape.org/namespaces/inkscape"
   width="744.09448819"
   height="1052.3622047"
   id="svg3228"
   version="1.1"
   inkscape:version="0.48.4 r9939"
   sodipodi:docname="easy_speeches.svg">
  <defs
     id="defs3230">
    <path
       style="fill:none;stroke:none"
       d="M 506.65804,512.31926 392.97713,508.43612"
       id="path3827-3"
       inkscape:connector-curvature="0" />
  </defs>
  <sodipodi:namedview
     id="base"
     pagecolor="#ffffff"
     bordercolor="#666666"
     borderopacity="1.0"
     inkscape:pageopacity="0.0"
     inkscape:pageshadow="2"
     inkscape:zoom="0.98994949"
     inkscape:cx="67.48401"
     inkscape:cy="874.90499"
     inkscape:document-units="px"
     inkscape:current-layer="layer1"
     showgrid="false"
     inkscape:object-nodes="false"
     inkscape:window-width="1301"
     inkscape:window-height="744"
     inkscape:window-x="65"
     inkscape:window-y="24"
     inkscape:window-maximized="1" />
  <metadata
     id="metadata3233">
    <rdf:RDF>
      <cc:Work
         rdf:about="">
        <dc:format>image/svg+xml</dc:format>
        <dc:type
           rdf:resource="http://purl.org/dc/dcmitype/StillImage" />
        <dc:title></dc:title>
      </cc:Work>
    </rdf:RDF>
  </metadata>
  <g
     inkscape:label="Layer 1"
     inkscape:groupmode="layer"
     id="layer1">
    <rect
       style="fill:#ffffff;fill-opacity:1;stroke:none"
       id="rect3965"
       width="324.29672"
       height="188.0482"
       x="51.542675"
       y="35.282101"
       inkscape:export-filename="/home/krother/Desktop/Academis_ebooks/speech_projects/en/easy_speeches/easy_speeches.png"
       inkscape:export-xdpi="150.03148"
       inkscape:export-ydpi="150.03148" />
    <path
       style="fill:#cccccc;stroke:none"
       d="m 51.542395,197.07215 324.296995,0 0,26.25815 -324.296995,0 z"
       id="rect3134"
       inkscape:connector-curvature="0"
       sodipodi:nodetypes="ccccc"
       inkscape:export-filename="/home/krother/Desktop/Academis_ebooks/speech_projects/en/easy_speeches/easy_speeches.png"
       inkscape:export-xdpi="150.03148"
       inkscape:export-ydpi="150.03148" />
    <g
       id="g3065"
       transform="translate(7.0710678,0)"
       inkscape:export-filename="/home/krother/Desktop/Academis_ebooks/speech_projects/en/easy_speeches/easy_speeches.png"
       inkscape:export-xdpi="150.03148"
       inkscape:export-ydpi="150.03148">
      <g
         transform="translate(60.714286,0)"
         id="g3028">
        <g
           style="stroke:#000000;stroke-width:0.93009984"
           inkscape:export-ydpi="150.03148"
           inkscape:export-xdpi="150.03148"
           inkscape:export-filename="/home/krother/projects/speech_projects/multi-cultural/cover.png"
           transform="matrix(-1.0845312,0.01556547,0.01556547,1.0845312,1157.7572,-196.16535)"
           id="g4339">
          <path
             sodipodi:nodetypes="ssssccs"
             style="fill:#5b88bf;fill-opacity:1;stroke:#000000;stroke-width:1.60412347"
             d="m 865.95178,277.20295 c -2.82542,1.63125 -3.80636,2.68231 -4.72303,5.18938 -0.10302,0.28176 -3.78001,-0.084 -4.09968,1.3151 -0.48465,2.12125 3.12285,3.06796 3.10541,3.389 -0.11376,2.09474 0.49041,3.456 1.61732,5.40786 9.41338,13.00089 24.98123,-0.80598 19.395,-11.19771 -3.09265,-5.35663 -9.93839,-7.19628 -15.29502,-4.10363 z"
             id="path4343"
             inkscape:connector-curvature="0"
             inkscape:export-filename="C:\Documents and Settings\Kristian\Pulpit\title.png"
             inkscape:export-xdpi="300.03"
             inkscape:export-ydpi="300.03" />
        </g>
        <rect
           y="-265.58667"
           x="-152.35886"
           height="15.250094"
           width="22.418228"
           id="rect3882"
           style="fill:#ff6600;fill-opacity:1;stroke:#000000;stroke-width:1.15330112;stroke-linecap:round;stroke-miterlimit:4;stroke-opacity:1;stroke-dasharray:none;stroke-dashoffset:0"
           transform="matrix(-0.05227513,-0.99863272,-0.9993835,0.03510876,0,0)" />
        <path
           sodipodi:nodetypes="ccssscc"
           inkscape:export-ydpi="150.03148"
           inkscape:export-xdpi="150.03148"
           inkscape:export-filename="/home/krother/projects/speech_projects/multi-cultural/cover.png"
           id="path3103"
           d="m 225.99592,145.04171 25.90437,-15.38325 c 0.90905,-2.42473 3.2477,-4.16141 5.98991,-4.16141 3.532,0 6.39966,2.86775 6.39966,6.39974 0,3.53199 -2.86766,6.39974 -6.39966,6.39974 -1.01841,0 -1.98275,-0.23856 -2.83734,-0.66205 l -28.42153,17.93054"
           style="fill:#5b88bf;fill-opacity:1;stroke:#000000;stroke-width:1.73990107"
           inkscape:connector-curvature="0" />
        <path
           inkscape:connector-curvature="0"
           style="fill:#5b88bf;fill-opacity:1;stroke:#000000;stroke-width:1.73990107"
           d="m 251.90029,129.65846 c 0,0 -23.76188,13.44378 -24.88952,13.34385 -1.06115,-0.094 -1.56043,-0.60541 -2.44342,-1.17489 -1.20351,-0.7762 -10.01869,-0.79388 -12.51571,0 -2.49702,0.79388 -1.01176,1.22168 -2.61688,1.85108 -1.81828,0.71298 -24.71605,-14.02004 -24.71605,-14.02004 -0.90906,-2.42473 -3.2477,-4.16141 -5.98992,-4.16141 -3.532,0 -6.39966,2.86775 -6.39966,6.39974 0,3.53199 2.86766,6.39974 6.39966,6.39974 1.01841,0 1.98275,-0.23856 2.83734,-0.66205 l 23.8651,20.50187 -5.51263,28.8701 5.57597,0 -9.45438,17.55735 10.99383,-1.51523 9.80957,-14.52147 5.01188,15.53228 13.77452,0 -5.45584,-4.79122 1.11591,-12.26171 5.60867,0 -9.09137,-28.8701 26.71088,-20.43462 0.98105,-0.15654"
           id="path3228"
           inkscape:export-filename="/home/krother/projects/speech_projects/multi-cultural/cover.png"
           inkscape:export-xdpi="150.03148"
           inkscape:export-ydpi="150.03148"
           sodipodi:nodetypes="csssscsssccccccccccccccc" />
      </g>
      <g
         id="g3035"
         transform="translate(-100.71429,0)">
        <g
           id="g3037"
           transform="matrix(-1.0672245,-0.19360271,-0.19360271,1.0672245,1202.6865,-9.2720229)"
           inkscape:export-filename="/home/krother/projects/speech_projects/multi-cultural/cover.png"
           inkscape:export-xdpi="150.03148"
           inkscape:export-ydpi="150.03148"
           style="stroke:#000000;stroke-width:0.93009984">
          <path
             inkscape:export-ydpi="300.03"
             inkscape:export-xdpi="300.03"
             inkscape:export-filename="C:\Documents and Settings\Kristian\Pulpit\title.png"
             inkscape:connector-curvature="0"
             id="path3039"
             d="m 865.95178,277.20295 c -2.82542,1.63125 -3.80636,2.68231 -4.72303,5.18938 -0.10302,0.28176 -3.78001,-0.084 -4.09968,1.3151 -0.48465,2.12125 3.12285,3.06796 3.10541,3.389 -0.11376,2.09474 0.49041,3.456 1.61732,5.40786 9.41338,13.00089 24.98123,-0.80598 19.395,-11.19771 -3.09265,-5.35663 -9.93839,-7.19628 -15.29502,-4.10363 z"
             style="fill:#5b88bf;fill-opacity:1;stroke:#000000;stroke-width:1.60412347"
             sodipodi:nodetypes="ssssccs" />
        </g>
        <rect
           inkscape:transform-center-y="2.2157509"
           inkscape:transform-center-x="-3.8755998"
           transform="matrix(0.94860559,0.3164608,0.33271316,-0.94302808,0,0)"
           style="fill:#ff6600;fill-opacity:1;stroke:#000000;stroke-width:1.15330112;stroke-linecap:round;stroke-miterlimit:4;stroke-opacity:1;stroke-dasharray:none;stroke-dashoffset:0"
           id="rect3041"
           width="22.418228"
           height="15.250094"
           x="226.22052"
           y="-117.4152" />
        <path
           sodipodi:nodetypes="cssscaaacccccccccccc"
           inkscape:export-ydpi="150.03148"
           inkscape:export-xdpi="150.03148"
           inkscape:export-filename="/home/krother/projects/speech_projects/multi-cultural/cover.png"
           id="path3045"
           d="m 226.92148,143.18088 c -0.79329,-0.62971 -1.47114,-0.78398 -2.35413,-1.35346 -1.20351,-0.7762 -10.04376,-0.86881 -12.51571,0 -1.3606,0.47821 -1.89564,1.09541 -2.61688,1.85108 -1.34847,1.41284 -18.42644,23.99773 -18.42644,23.99773 -2.49454,1.51128 -3.28198,2.0288 -3.61882,3.72745 -0.32284,1.62801 0.47654,3.68308 1.84265,4.62563 1.48063,1.02156 3.86783,1.0366 5.39585,0.0874 1.59408,-0.99026 1.55798,-4.66324 2.41257,-5.08673 l 11.96209,-13.16147 -9.08406,29.13796 5.57597,0 -5.16867,17.30512 10.99383,0 5.52386,-15.78451 3.40474,15.78451 13.2388,0 c 0,0 -5.06367,-11.37186 -5.7685,-17.30516 l 9.1801,0 -9.09137,-28.8701"
           style="fill:#5b88bf;fill-opacity:1;stroke:#000000;stroke-width:1.73990107"
           inkscape:connector-curvature="0" />
        <path
           inkscape:connector-curvature="0"
           style="fill:#5b88bf;fill-opacity:1;stroke:#000000;stroke-width:1.73990107"
           d="m 226.40087,142.68076 18.14593,23.50558 1.25978,1.63188 c 1.77442,1.25125 3.30019,3.10365 3.19099,5.10839 -0.1094,2.00841 -1.74675,4.42824 -3.73379,4.74025 -2.51905,0.39555 -5.32152,-1.93502 -6.34748,-4.26943 -0.39076,-0.88911 0.0819,-1.99537 0.43688,-2.88062 l -11.7763,-13.03386"
           id="path3043"
           inkscape:export-filename="/home/krother/projects/speech_projects/multi-cultural/cover.png"
           inkscape:export-xdpi="150.03148"
           inkscape:export-ydpi="150.03148"
           sodipodi:nodetypes="cccaaacc" />
      </g>
      <path
         sodipodi:nodetypes="cccccccc"
         inkscape:connector-curvature="0"
         id="path3047"
         d="m 160.35714,165.93361 0,13.92857 c 17.23394,-7.6156 34.41352,-15.38338 56.28995,-10 l -0.71428,5.71428 15.24027,-12.04372 -13.8117,-11.83528 -0.71429,5.66472 c -19.83474,-2.46103 -38.24092,-0.27402 -56.28995,8.57143 z"
         style="fill:#b3b3b3;stroke:#000000;stroke-width:1px;stroke-linecap:butt;stroke-linejoin:miter;stroke-opacity:1" />
      <flowRoot
         transform="translate(21.428571,16.428571)"
         style="font-size:10px;font-style:normal;font-weight:normal;line-height:125%;letter-spacing:0px;word-spacing:0px;fill:#000000;fill-opacity:1;stroke:none;font-family:Sans"
         id="flowRoot3049"
         xml:space="preserve"><flowRegion
           id="flowRegion3051"><rect
             y="48.790752"
             x="86.428574"
             height="62.142857"
             width="77.85714"
             id="rect3053" /></flowRegion><flowPara
           style="font-size:36px;font-style:normal;font-weight:bold;-inkscape-font-specification:Sans Bold"
           id="flowPara3055">?</flowPara></flowRoot>      <flowRoot
         xml:space="preserve"
         id="flowRoot3057"
         style="font-size:10px;font-style:normal;font-weight:normal;line-height:125%;letter-spacing:0px;word-spacing:0px;fill:#000000;fill-opacity:1;stroke:none;font-family:Sans"
         transform="translate(181.42857,16.428571)"><flowRegion
           id="flowRegion3059"><rect
             id="rect3061"
             width="77.85714"
             height="62.142857"
             x="86.428574"
             y="48.790752" /></flowRegion><flowPara
           id="flowPara3063"
           style="font-size:36px;font-style:normal;font-weight:bold;-inkscape-font-specification:Sans Bold">!</flowPara></flowRoot>    </g>
  </g>
</svg>
