<?xml version="1.0" encoding="UTF-8" standalone="no"?>
<!-- Created with Inkscape (http://www.inkscape.org/) -->

<svg
   xmlns:dc="http://purl.org/dc/elements/1.1/"
   xmlns:cc="http://creativecommons.org/ns#"
   xmlns:rdf="http://www.w3.org/1999/02/22-rdf-syntax-ns#"
   xmlns:svg="http://www.w3.org/2000/svg"
   xmlns="http://www.w3.org/2000/svg"
   xmlns:sodipodi="http://sodipodi.sourceforge.net/DTD/sodipodi-0.dtd"
   xmlns:inkscape="http://www.inkscape.org/namespaces/inkscape"
   width="744.09448819"
   height="1052.3622047"
   id="svg3228"
   version="1.1"
   inkscape:version="0.48.4 r9939"
   sodipodi:docname="multicultural.svg">
  <defs
     id="defs3230">
    <path
       style="fill:none;stroke:none"
       d="M 506.65804,512.31926 392.97713,508.43612"
       id="path3827-3"
       inkscape:connector-curvature="0" />
  </defs>
  <sodipodi:namedview
     id="base"
     pagecolor="#ffffff"
     bordercolor="#666666"
     borderopacity="1.0"
     inkscape:pageopacity="0.0"
     inkscape:pageshadow="2"
     inkscape:zoom="0.7"
     inkscape:cx="393.16561"
     inkscape:cy="751.79482"
     inkscape:document-units="px"
     inkscape:current-layer="layer1"
     showgrid="false"
     inkscape:object-nodes="true"
     inkscape:window-width="1301"
     inkscape:window-height="744"
     inkscape:window-x="65"
     inkscape:window-y="24"
     inkscape:window-maximized="1" />
  <metadata
     id="metadata3233">
    <rdf:RDF>
      <cc:Work
         rdf:about="">
        <dc:format>image/svg+xml</dc:format>
        <dc:type
           rdf:resource="http://purl.org/dc/dcmitype/StillImage" />
        <dc:title></dc:title>
      </cc:Work>
    </rdf:RDF>
  </metadata>
  <g
     inkscape:label="Layer 1"
     inkscape:groupmode="layer"
     id="layer1">
    <rect
       style="fill:#ffffff;fill-opacity:1;stroke:none"
       id="rect3965"
       width="324.29672"
       height="188.0482"
       x="51.542641"
       y="35.282108"
       inkscape:export-filename="/home/krother/Desktop/Academis_ebooks/speech_projects/en/multi_cultural_awareness/multicultural.png"
       inkscape:export-xdpi="150.03148"
       inkscape:export-ydpi="150.03148" />
    <path
       style="fill:#cccccc;stroke:none"
       d="m 51.542395,197.07215 324.296995,0 0,26.25815 -324.296995,0 z"
       id="rect3134"
       inkscape:connector-curvature="0"
       sodipodi:nodetypes="ccccc"
       inkscape:export-filename="/home/krother/Desktop/Academis_ebooks/speech_projects/en/multi_cultural_awareness/multicultural.png"
       inkscape:export-xdpi="150.03148"
       inkscape:export-ydpi="150.03148" />
    <g
       id="g3808"
       transform="translate(-329.47567,-503.05597)"
       inkscape:export-filename="/home/krother/Desktop/Academis_ebooks/speech_projects/en/multi_cultural_awareness/multicultural.png"
       inkscape:export-xdpi="150.03148"
       inkscape:export-ydpi="150.03148">
      <g
         id="g4339"
         transform="matrix(-1.0845312,0.01556547,0.01556547,1.0845312,1487.2329,306.89062)"
         inkscape:export-filename="/home/krother/projects/speech_projects/multi-cultural/cover.png"
         inkscape:export-xdpi="150.03148"
         inkscape:export-ydpi="150.03148"
         style="stroke:#000000;stroke-width:0.93009984">
        <path
           inkscape:export-ydpi="300.03"
           inkscape:export-xdpi="300.03"
           inkscape:export-filename="C:\Documents and Settings\Kristian\Pulpit\title.png"
           inkscape:connector-curvature="0"
           id="path4343"
           d="m 865.95178,277.20295 c -2.82542,1.63125 -3.80636,2.68231 -4.72303,5.18938 -0.10302,0.28176 -3.78001,-0.084 -4.09968,1.3151 -0.48465,2.12125 3.12285,3.06796 3.10541,3.389 -0.11376,2.09474 0.49041,3.456 1.61732,5.40786 9.41338,13.00089 24.98123,-0.80598 19.395,-11.19771 -3.09265,-5.35663 -9.93839,-7.19628 -15.29502,-4.10363 z"
           style="fill:#5b88bf;fill-opacity:1;stroke:#000000;stroke-width:1.60412347"
           sodipodi:nodetypes="ssssccs" />
      </g>
      <path
         inkscape:connector-curvature="0"
         style="fill:#5b88bf;fill-opacity:1;stroke:#000000;stroke-width:1.73990107"
         d="m 541.52731,644.88339 12.51571,0 27.33294,-12.16896 c 0.90905,-2.42473 3.2477,-4.16141 5.98991,-4.16141 3.532,0 6.39966,2.86775 6.39966,6.39974 0,3.53199 -2.86766,6.39974 -6.39966,6.39974 -1.01841,0 -1.98275,-0.23856 -2.83734,-0.66205 l -26.99296,24.71625 9.84293,41.70865 -15.54228,0 -5.51696,-23.10842 -6.0215,23.61284 -17.55982,0"
         id="path3103"
         inkscape:export-filename="/home/krother/projects/speech_projects/multi-cultural/cover.png"
         inkscape:export-xdpi="150.03148"
         inkscape:export-ydpi="150.03148"
         sodipodi:nodetypes="cccsssccccccc" />
      <path
         sodipodi:nodetypes="ccccsssccccccccc"
         inkscape:export-ydpi="150.03148"
         inkscape:export-xdpi="150.03148"
         inkscape:export-filename="/home/krother/projects/speech_projects/multi-cultural/cover.png"
         id="path3228"
         d="m 581.37596,632.71443 -27.33294,12.16896 -12.51571,0 -27.33293,-12.16896 c -0.90906,-2.42473 -3.2477,-4.16141 -5.98992,-4.16141 -3.532,0 -6.39966,2.86775 -6.39966,6.39974 0,3.53199 2.86766,6.39974 6.39966,6.39974 1.01841,0 1.98275,-0.23856 2.83734,-0.66205 l 23.8651,24.71625 -12.16896,42.21307 17.55982,0 6.0215,-23.61284 5.51696,23.10842 15.54228,0 -9.84293,-41.70865 26.99296,-24.71625"
         style="fill:#5b88bf;fill-opacity:1;stroke:#000000;stroke-width:1.73990107"
         inkscape:connector-curvature="0" />
      <g
         inkscape:export-ydpi="150.03148"
         inkscape:export-xdpi="150.03148"
         inkscape:export-filename="/home/krother/projects/speech_projects/multi-cultural/cover.png"
         transform="matrix(0.34208183,0,0,0.34208183,423.36225,385.60698)"
         id="g3890">
        <rect
           style="fill:#00aad4;fill-opacity:1;stroke:#000000;stroke-width:4;stroke-linecap:round;stroke-miterlimit:4;stroke-opacity:1;stroke-dasharray:none;stroke-dashoffset:0"
           id="rect3105"
           width="85.873039"
           height="47.890736"
           x="308.71356"
           y="565.53418" />
        <rect
           y="342.76218"
           x="636.87817"
           height="47.890736"
           width="85.873039"
           id="rect3877"
           style="fill:#ff5555;fill-opacity:1;stroke:#000000;stroke-width:4;stroke-linecap:round;stroke-miterlimit:4;stroke-opacity:1;stroke-dasharray:none;stroke-dashoffset:0"
           transform="matrix(0.91528192,0.40281386,-0.40281386,0.91528192,0,0)" />
        <rect
           transform="matrix(-0.91528192,0.40281386,0.40281386,0.91528192,0,0)"
           style="fill:#b380ff;fill-opacity:1;stroke:#000000;stroke-width:4;stroke-linecap:round;stroke-miterlimit:4;stroke-opacity:1;stroke-dasharray:none;stroke-dashoffset:0"
           id="rect3880"
           width="85.873039"
           height="47.890736"
           x="-6.839736"
           y="626.06122" />
        <rect
           y="540.78143"
           x="352.91266"
           height="47.890736"
           width="85.873039"
           id="rect3882"
           style="fill:#ff6600;fill-opacity:1;stroke:#000000;stroke-width:4;stroke-linecap:round;stroke-miterlimit:4;stroke-opacity:1;stroke-dasharray:none;stroke-dashoffset:0"
           transform="matrix(-0.70027951,0.71386876,0.71386876,0.70027951,0,0)" />
        <rect
           transform="matrix(0.70027951,0.71386876,-0.71386876,0.70027951,0,0)"
           style="fill:#ffd42a;fill-opacity:1;stroke:#000000;stroke-width:4;stroke-linecap:round;stroke-miterlimit:4;stroke-opacity:1;stroke-dasharray:none;stroke-dashoffset:0"
           id="rect3884"
           width="85.873039"
           height="47.890736"
           x="845.41925"
           y="38.717487" />
        <rect
           y="-490.19476"
           x="846.91815"
           height="47.890736"
           width="85.873039"
           id="rect3886"
           style="fill:#6600ff;fill-opacity:1;stroke:#000000;stroke-width:4;stroke-linecap:round;stroke-miterlimit:4;stroke-opacity:1;stroke-dasharray:none;stroke-dashoffset:0"
           transform="matrix(0.19424868,0.98095232,-0.98095232,0.19424868,0,0)" />
        <rect
           transform="matrix(-0.19424868,0.98095232,0.98095232,0.19424868,0,0)"
           style="fill:#71c837;fill-opacity:1;stroke:#000000;stroke-width:4;stroke-linecap:round;stroke-miterlimit:4;stroke-opacity:1;stroke-dasharray:none;stroke-dashoffset:0"
           id="rect3888"
           width="85.873039"
           height="47.890736"
           x="710.85797"
           y="196.90645" />
      </g>
    </g>
  </g>
</svg>
