<?xml version="1.0" encoding="UTF-8" standalone="no"?>
<!-- Created with Inkscape (http://www.inkscape.org/) -->

<svg
   xmlns:dc="http://purl.org/dc/elements/1.1/"
   xmlns:cc="http://creativecommons.org/ns#"
   xmlns:rdf="http://www.w3.org/1999/02/22-rdf-syntax-ns#"
   xmlns:svg="http://www.w3.org/2000/svg"
   xmlns="http://www.w3.org/2000/svg"
   xmlns:sodipodi="http://sodipodi.sourceforge.net/DTD/sodipodi-0.dtd"
   xmlns:inkscape="http://www.inkscape.org/namespaces/inkscape"
   width="744.09448819"
   height="1052.3622047"
   id="svg3866"
   version="1.1"
   inkscape:version="0.48.4 r9939"
   sodipodi:docname="meeting_facilitation.svg">
  <defs
     id="defs3868" />
  <sodipodi:namedview
     id="base"
     pagecolor="#ffffff"
     bordercolor="#666666"
     borderopacity="1.0"
     inkscape:pageopacity="0.0"
     inkscape:pageshadow="2"
     inkscape:zoom="0.98994949"
     inkscape:cx="253.79089"
     inkscape:cy="519.9709"
     inkscape:document-units="px"
     inkscape:current-layer="layer1"
     showgrid="false"
     inkscape:window-width="1301"
     inkscape:window-height="744"
     inkscape:window-x="65"
     inkscape:window-y="24"
     inkscape:window-maximized="1" />
  <metadata
     id="metadata3871">
    <rdf:RDF>
      <cc:Work
         rdf:about="">
        <dc:format>image/svg+xml</dc:format>
        <dc:type
           rdf:resource="http://purl.org/dc/dcmitype/StillImage" />
        <dc:title></dc:title>
      </cc:Work>
    </rdf:RDF>
  </metadata>
  <g
     inkscape:label="Layer 1"
     inkscape:groupmode="layer"
     id="layer1">
    <rect
       style="fill:#ffffff;fill-opacity:1;stroke:none"
       id="rect3965"
       width="324.29672"
       height="188.0482"
       x="74.460846"
       y="275.70352"
       inkscape:export-filename="/home/krother/Desktop/Academis_ebooks/speech_projects/en/meeting_facilitation/meeting_facilitation.png"
       inkscape:export-xdpi="150.03148"
       inkscape:export-ydpi="150.03148" />
    <g
       id="g3939"
       transform="matrix(-1,0,0,1,501.72521,28.939085)"
       inkscape:export-filename="/home/krother/Desktop/Academis_ebooks/speech_projects/en/meeting_facilitation/meeting_facilitation.png"
       inkscape:export-xdpi="150.03148"
       inkscape:export-ydpi="150.03148">
      <g
         style="stroke:#000000;stroke-width:0.93009984"
         inkscape:export-ydpi="150.03148"
         inkscape:export-xdpi="150.03148"
         inkscape:export-filename="/home/krother/projects/speech_projects/multi-cultural/cover.png"
         transform="matrix(-0.87781042,-0.63710203,-0.63710203,0.87781042,1182.8989,609.91407)"
         id="g3945">
        <path
           sodipodi:nodetypes="ssssccs"
           style="fill:#5b88bf;fill-opacity:1;stroke:#000000;stroke-width:1.60412347"
           d="m 864.72444,277.93487 c -2.55496,2.02883 -3.37076,3.21265 -3.90897,5.82723 -0.0605,0.29384 -3.7513,0.47252 -3.86186,1.90341 -0.16759,2.16945 3.53988,2.57563 3.56982,2.89574 0.19537,2.08871 0.99306,3.34638 2.39462,5.1114 11.22208,11.47606 24.59144,-4.46908 17.53846,-13.92685 -3.84641,-4.84388 -10.88819,-5.65733 -15.73207,-1.81093 z"
           id="path3947"
           inkscape:connector-curvature="0"
           inkscape:export-filename="C:\Documents and Settings\Kristian\Pulpit\title.png"
           inkscape:export-xdpi="300.03"
           inkscape:export-ydpi="300.03" />
      </g>
      <path
         inkscape:connector-curvature="0"
         style="fill:#5b88bf;fill-opacity:1;stroke:#000000;stroke-width:1.73990107"
         d="m 254.41369,347.57679 c -1.95991,-10.44711 -3.44791,-23.22362 -13.44335,-26.97445 l -11.00048,0.50508 c -6.26339,0.42874 -9.44687,5.59569 -10.34188,8.16583 -2.26455,7.30102 -0.25439,19.8271 2.41165,30.32689 39.70268,-12.22137 28.7607,2.84036 25.9588,-10.6458 l 5.77975,2.8104"
         id="path3949"
         inkscape:export-filename="/home/krother/projects/speech_projects/multi-cultural/cover.png"
         inkscape:export-xdpi="150.03148"
         inkscape:export-ydpi="150.03148"
         sodipodi:nodetypes="ccccccc" />
    </g>
    <g
       transform="matrix(-1,0,0,1,563.09198,35.252539)"
       id="g3951"
       inkscape:export-filename="/home/krother/Desktop/Academis_ebooks/speech_projects/en/meeting_facilitation/meeting_facilitation.png"
       inkscape:export-xdpi="150.03148"
       inkscape:export-ydpi="150.03148">
      <g
         id="g3961"
         transform="matrix(-1.077557,-0.12377779,-0.12377779,1.077557,1209.7667,106.30455)"
         inkscape:export-filename="/home/krother/projects/speech_projects/multi-cultural/cover.png"
         inkscape:export-xdpi="150.03148"
         inkscape:export-ydpi="150.03148"
         style="stroke:#000000;stroke-width:0.93009984">
        <path
           inkscape:export-ydpi="300.03"
           inkscape:export-xdpi="300.03"
           inkscape:export-filename="C:\Documents and Settings\Kristian\Pulpit\title.png"
           inkscape:connector-curvature="0"
           id="path3963"
           d="m 865.95178,277.20295 c -2.82542,1.63125 -3.80636,2.68231 -4.72303,5.18938 -0.10302,0.28176 -3.78001,-0.084 -4.09968,1.3151 -0.48465,2.12125 3.12285,3.06796 3.10541,3.389 -0.11376,2.09474 0.49041,3.456 1.61732,5.40786 9.41338,13.00089 24.98123,-0.80598 19.395,-11.19771 -3.09265,-5.35663 -9.93839,-7.19628 -15.29502,-4.10363 z"
           style="fill:#5b88bf;fill-opacity:1;stroke:#000000;stroke-width:1.60412347"
           sodipodi:nodetypes="ssssccs" />
      </g>
      <path
         sodipodi:nodetypes="cccccc"
         inkscape:export-ydpi="150.03148"
         inkscape:export-xdpi="150.03148"
         inkscape:export-filename="/home/krother/projects/speech_projects/multi-cultural/cover.png"
         id="path3957"
         d="m 229.96986,321.10742 12.51571,0 c 17.26556,13.22903 13.02295,21.19975 12.58392,20.27077 l -4.2992,22.51575 -9.73391,-4.29314 -5.51696,-4.67314"
         style="fill:#5b88bf;fill-opacity:1;stroke:#000000;stroke-width:1.73990107"
         inkscape:connector-curvature="0" />
      <path
         sodipodi:nodetypes="ccscccccc"
         inkscape:export-ydpi="150.03148"
         inkscape:export-xdpi="150.03148"
         inkscape:export-filename="/home/krother/projects/speech_projects/multi-cultural/cover.png"
         id="path3965"
         d="m 242.48557,321.10742 -12.51571,0 c 0,0 -5.68743,1.45241 -8.22579,3.7239 -7.05428,6.31262 -0.26847,13.66214 -0.0429,19.82987 l 3.36894,20.49479 3.67022,18.68782 6.0215,-23.61284 5.51696,23.10842 15.54228,0"
         style="fill:#5b88bf;fill-opacity:1;stroke:#000000;stroke-width:1.73990107"
         inkscape:connector-curvature="0" />
    </g>
    <g
       id="g3987"
       transform="translate(-81.039536,28.181471)"
       inkscape:export-filename="/home/krother/Desktop/Academis_ebooks/speech_projects/en/meeting_facilitation/meeting_facilitation.png"
       inkscape:export-xdpi="150.03148"
       inkscape:export-ydpi="150.03148">
      <g
         style="stroke:#000000;stroke-width:0.93009984"
         inkscape:export-ydpi="150.03148"
         inkscape:export-xdpi="150.03148"
         inkscape:export-filename="/home/krother/projects/speech_projects/multi-cultural/cover.png"
         transform="matrix(-1.0633115,-0.21405283,-0.21405283,1.0633115,1223.2187,188.88421)"
         id="g3989">
        <path
           sodipodi:nodetypes="ssssccs"
           style="fill:#5b88bf;fill-opacity:1;stroke:#000000;stroke-width:1.60412347"
           d="m 865.95178,277.20295 c -2.82542,1.63125 -3.80636,2.68231 -4.72303,5.18938 -0.10302,0.28176 -3.78001,-0.084 -4.09968,1.3151 -0.48465,2.12125 3.12285,3.06796 3.10541,3.389 -0.11376,2.09474 0.49041,3.456 1.61732,5.40786 9.41338,13.00089 24.98123,-0.80598 19.395,-11.19771 -3.09265,-5.35663 -9.93839,-7.19628 -15.29502,-4.10363 z"
           id="path3991"
           inkscape:connector-curvature="0"
           inkscape:export-filename="C:\Documents and Settings\Kristian\Pulpit\title.png"
           inkscape:export-xdpi="300.03"
           inkscape:export-ydpi="300.03" />
      </g>
      <path
         inkscape:connector-curvature="0"
         style="fill:#5b88bf;fill-opacity:1;stroke:#000000;stroke-width:1.73990107"
         d="m 229.96986,321.10742 12.51571,0 15.7286,11.38295 13.11957,0.81802 c 2.55055,-1.16204 2.54873,-1.3708 5.29094,-1.3708 3.532,0 5.5834,2.34998 5.5834,5.88197 0,3.53199 -2.86766,6.39974 -6.39966,6.39974 -1.01841,0 -1.98275,-0.23856 -2.83734,-0.66205 l -8.39296,-1.02287 -14.30685,-0.90365 2.01425,40.19342 -12.00675,1.51523 -5.51696,-23.10842"
         id="path3993"
         inkscape:export-filename="/home/krother/projects/speech_projects/multi-cultural/cover.png"
         inkscape:export-xdpi="150.03148"
         inkscape:export-ydpi="150.03148"
         sodipodi:nodetypes="ccccssscccccc" />
      <path
         inkscape:connector-curvature="0"
         style="fill:#5b88bf;fill-opacity:1;stroke:#000000;stroke-width:1.73990107"
         d="m 242.48557,321.10742 -12.51571,0 c 0,0 -5.68743,1.45241 -8.22579,3.7239 -7.05428,6.31262 -3.29893,12.39945 -3.07338,18.56718 l 1.85371,18.72702 8.21591,21.71828 6.0215,-23.61284 5.51696,23.10842 15.54228,0"
         id="path3995"
         inkscape:export-filename="/home/krother/projects/speech_projects/multi-cultural/cover.png"
         inkscape:export-xdpi="150.03148"
         inkscape:export-ydpi="150.03148"
         sodipodi:nodetypes="ccscccccc" />
    </g>
    <g
       id="g3917"
       transform="matrix(1,0,0,0.5590062,0.71428572,194.55547)"
       inkscape:export-filename="/home/krother/Desktop/Academis_ebooks/speech_projects/en/meeting_facilitation/meeting_facilitation.png"
       inkscape:export-xdpi="150.03148"
       inkscape:export-ydpi="150.03148">
      <path
         sodipodi:type="arc"
         style="fill:#808080;fill-opacity:1;stroke:none"
         id="path3913"
         sodipodi:cx="227.14285"
         sodipodi:cy="350.57648"
         sodipodi:rx="107.85714"
         sodipodi:ry="53.92857"
         d="m 334.99999,350.57648 c 0,29.78392 -48.28928,53.92857 -107.85714,53.92857 -59.56785,0 -107.85714,-24.14465 -107.85714,-53.92857 0,-29.78393 48.28929,-53.92857 107.85714,-53.92857 59.56786,0 107.85714,24.14464 107.85714,53.92857 z"
         transform="translate(12.857143,28.571428)" />
      <path
         transform="translate(12.857143,21.428571)"
         d="m 334.99999,350.57648 c 0,29.78392 -48.28928,53.92857 -107.85714,53.92857 -59.56785,0 -107.85714,-24.14465 -107.85714,-53.92857 0,-29.78393 48.28929,-53.92857 107.85714,-53.92857 59.56786,0 107.85714,24.14464 107.85714,53.92857 z"
         sodipodi:ry="53.92857"
         sodipodi:rx="107.85714"
         sodipodi:cy="350.57648"
         sodipodi:cx="227.14285"
         id="path3909"
         style="fill:#cccccc;fill-opacity:1;stroke:none"
         sodipodi:type="arc" />
    </g>
    <rect
       style="fill:#00aad4;fill-opacity:1;stroke:#000000;stroke-width:0.8926881;stroke-linecap:round;stroke-miterlimit:4;stroke-opacity:1;stroke-dasharray:none;stroke-dashoffset:0"
       id="rect3105"
       width="16.526453"
       height="12.393906"
       x="297.62537"
       y="353.28162"
       transform="matrix(0.98890353,0.14855908,-0.14855908,0.98890353,0,0)"
       inkscape:export-filename="/home/krother/Desktop/Academis_ebooks/speech_projects/en/meeting_facilitation/meeting_facilitation.png"
       inkscape:export-xdpi="150.03148"
       inkscape:export-ydpi="150.03148" />
    <rect
       y="410.56601"
       x="305.2572"
       height="11.869781"
       width="15.617513"
       id="rect3882"
       style="fill:#ff6600;fill-opacity:1;stroke:#000000;stroke-width:0.88145512;stroke-linecap:round;stroke-miterlimit:4;stroke-opacity:1;stroke-dasharray:none;stroke-dashoffset:0"
       transform="matrix(-0.50274752,0.8644333,0.95910577,0.28304793,0,0)"
       inkscape:export-filename="/home/krother/Desktop/Academis_ebooks/speech_projects/en/meeting_facilitation/meeting_facilitation.png"
       inkscape:export-xdpi="150.03148"
       inkscape:export-ydpi="150.03148" />
    <rect
       transform="matrix(-0.58283627,0.81258962,0.81711383,0.57647635,0,0)"
       style="fill:#71c837;fill-opacity:1;stroke:#000000;stroke-width:0.87354678;stroke-linecap:round;stroke-miterlimit:4;stroke-opacity:1;stroke-dasharray:none;stroke-dashoffset:0"
       id="rect3888"
       width="15.995355"
       height="12.262156"
       x="200.22215"
       y="374.80972"
       inkscape:export-filename="/home/krother/Desktop/Academis_ebooks/speech_projects/en/meeting_facilitation/meeting_facilitation.png"
       inkscape:export-xdpi="150.03148"
       inkscape:export-ydpi="150.03148" />
    <rect
       transform="matrix(-0.4151393,-0.90975786,0.90975786,-0.4151393,0,0)"
       y="90.060616"
       x="-489.37598"
       height="12.393906"
       width="16.526453"
       id="rect4018"
       style="fill:#ff5555;fill-opacity:1;stroke:#000000;stroke-width:0.8926881;stroke-linecap:round;stroke-miterlimit:4;stroke-opacity:1;stroke-dasharray:none;stroke-dashoffset:0"
       inkscape:export-filename="/home/krother/Desktop/Academis_ebooks/speech_projects/en/meeting_facilitation/meeting_facilitation.png"
       inkscape:export-xdpi="150.03148"
       inkscape:export-ydpi="150.03148" />
    <path
       sodipodi:nodetypes="cczzzzsszc"
       inkscape:export-ydpi="150.03148"
       inkscape:export-xdpi="150.03148"
       inkscape:export-filename="/home/krother/Desktop/Academis_ebooks/speech_projects/en/meeting_facilitation/meeting_facilitation.png"
       id="path3999"
       d="m 316.12347,360.08849 -5.33537,24.31593 c -2.60622,2.12161 -13.16616,9.79771 -15.02358,11.30677 -1.85742,1.50906 -1.83451,2.69566 -3.58863,3.30051 -1.75412,0.60485 -4.61249,1.31975 -6.15433,-1.20323 -1.54184,-2.52298 -1.06186,-3.18397 0.10619,-5.19981 1.16805,-2.01584 3.65043,-3.4477 6.16995,-3.68031 2.45272,-0.22645 4.58473,-4.6239 5.37434,-6.65866 2.33445,-6.01566 8.43817,-10.89464 8.98133,-13.11425 0.54316,-2.21962 9.38686,-8.67669 9.38686,-8.67669"
       style="fill:#5b88bf;fill-opacity:1;stroke:#000000;stroke-width:1.73990107"
       inkscape:connector-curvature="0" />
    <path
       inkscape:connector-curvature="0"
       style="fill:#5b88bf;fill-opacity:1;stroke:#000000;stroke-width:1.73990107"
       d="m 326.68564,366.02435 c -4.51403,10.95034 -2.98039,14.89783 -5.76842,19.7167 l -11.3518,9.15178 c -2.55055,-1.16204 -2.54873,-1.3708 -5.29094,-1.3708 -3.532,0 -5.5834,2.34998 -5.5834,5.88197 0,3.53199 2.86766,6.39974 6.39966,6.39974 1.01841,0 3.75052,-1.24871 4.60511,-1.6722 7.36686,-1.49531 14.18148,-5.62689 17.3965,-7.22981 3.21503,-1.60292 12.88551,-24.70889 12.88551,-24.70889"
       id="path3967"
       inkscape:export-filename="/home/krother/Desktop/Academis_ebooks/speech_projects/en/meeting_facilitation/meeting_facilitation.png"
       inkscape:export-xdpi="150.03148"
       inkscape:export-ydpi="150.03148"
       sodipodi:nodetypes="cccsssczc" />
    <path
       sodipodi:nodetypes="cccsssczc"
       inkscape:export-ydpi="150.03148"
       inkscape:export-xdpi="150.03148"
       inkscape:export-filename="/home/krother/Desktop/Academis_ebooks/speech_projects/en/meeting_facilitation/meeting_facilitation.png"
       id="path3997"
       d="m 155.3668,358.95328 c 4.51403,10.95034 2.98039,14.89783 5.76842,19.7167 l 11.3518,9.15178 c 2.55055,-1.16204 2.54873,-1.3708 5.29094,-1.3708 3.532,0 5.5834,2.34998 5.5834,5.88197 0,3.53199 -2.86766,6.39974 -6.39966,6.39974 -1.01841,0 -3.75052,-1.24871 -4.60511,-1.6722 -7.36686,-1.49531 -14.18148,-5.62689 -17.3965,-7.22981 -3.21503,-1.60292 -12.88551,-24.70889 -12.88551,-24.70889"
       style="fill:#5b88bf;fill-opacity:1;stroke:#000000;stroke-width:1.73990107"
       inkscape:connector-curvature="0" />
    <path
       style="fill:#666666;stroke:#000000;stroke-width:1px;stroke-linecap:butt;stroke-linejoin:miter;stroke-opacity:1"
       d="m 242.43661,390.33346 14.89975,-13.00572 -1.51523,-1.51523 -13.51079,11.99557 z"
       id="path4014"
       inkscape:connector-curvature="0"
       inkscape:export-filename="/home/krother/Desktop/Academis_ebooks/speech_projects/en/meeting_facilitation/meeting_facilitation.png"
       inkscape:export-xdpi="150.03148"
       inkscape:export-ydpi="150.03148" />
    <path
       sodipodi:nodetypes="cccsssczc"
       inkscape:export-ydpi="150.03148"
       inkscape:export-xdpi="150.03148"
       inkscape:export-filename="/home/krother/Desktop/Academis_ebooks/speech_projects/en/meeting_facilitation/meeting_facilitation.png"
       id="path4010"
       d="m 273.65263,356.17536 c -4.51403,10.95034 -2.98039,14.89783 -5.76842,19.7167 l -11.3518,4.10102 c -2.55055,-1.16204 -2.54873,-1.3708 -5.29094,-1.3708 -3.532,0 -5.5834,2.34998 -5.5834,5.88197 0,3.53199 2.86766,6.39974 6.39966,6.39974 1.01841,0 3.75052,-1.24871 4.60511,-1.6722 7.36686,-1.49531 14.18148,-0.57613 17.3965,-2.17905 3.21503,-1.60292 8.33982,-27.48681 8.33982,-27.48681"
       style="fill:#5b88bf;fill-opacity:1;stroke:#000000;stroke-width:1.73990107"
       inkscape:connector-curvature="0" />
  </g>
</svg>
